<?xml version="1.0" encoding="utf-8"?>
<!-- Generator: Adobe Illustrator 19.0.0, SVG Export Plug-In . SVG Version: 6.00 Build 0)  -->
<svg version="1.1" id="Layer_1" xmlns="http://www.w3.org/2000/svg" xmlns:xlink="http://www.w3.org/1999/xlink" x="0px" y="0px"
	 viewBox="-370 371 103 59.7" style="enable-background:new -370 371 103 59.7;" xml:space="preserve">
<style type="text/css">
	.st0{fill:#7A7673;}
</style>
<g>
	<g>
		<path class="st0" d="M-308.2,390.5h0.9v3.8h5.9v0.8h-5.9v7.4c0,3.2,1,4.8,3.6,4.8c0.9,0,1.7-0.4,2.2-0.7l0.4,0.7
			c-0.6,0.4-1.6,0.9-2.7,0.9c-3,0-4.3-1.9-4.3-5.4v-12.3H-308.2z"/>
		<path class="st0" d="M-297.6,395.1c1.3-0.8,2.6-1.2,4.2-1.2c3.7,0,4.9,2,4.9,5.4v8.5h-0.9v-2.4c-0.9,1.2-2.4,2.5-5.1,2.5
			c-2.6,0-4.3-1.6-4.3-3.9c0-2.7,2.2-4.2,5.2-4.2c1.1,0,2.9,0.2,4.1,1.1c0-3.8-0.2-6.3-4.2-6.3c-1.6,0-2.5,0.4-3.8,1.2L-297.6,395.1
			z M-289.3,404.6V402c-1.2-0.8-2.5-1.2-4.1-1.2c-2.1,0-4.3,1-4.3,3.4c0,2,1.6,3.2,3.5,3.2C-291.4,407.3-290.2,405.9-289.3,404.6z"
			/>
		<path class="st0" d="M-283.6,394.3h0.9v2c1.1-1.3,3.2-2.3,5.3-2.3c4.1,0,6.5,2.9,6.5,6.9c0,4.2-2.8,7.3-7,7.3
			c-1.9,0-3.6-0.4-4.8-1.4v7.2h-0.9V394.3z M-282.7,397v8.8c1.6,1.1,3.2,1.5,4.8,1.5c3.6,0,6.1-2.6,6.1-6.4c0-3.7-2.1-6.2-5.8-6.2
			C-279.8,394.8-281.8,396-282.7,397z"/>
	</g>
	<g>
		<path class="st0" d="M-341,372.9c-15.6,0-28.2,12.6-28.2,28.1s12.6,28.2,28.2,28.2s28.2-12.6,28.2-28.2
			C-312.8,385.4-325.4,372.9-341,372.9z M-341,425c-13.3,0-24.1-10.8-24.1-24.1c0-13.3,10.8-24,24.1-24s24.1,10.8,24.1,24.1
			C-316.9,414.3-327.7,425-341,425z"/>
		<path class="st0" d="M-341,380.5c-11.3,0-20.5,9.1-20.5,20.4c0,11.3,9.2,20.5,20.5,20.5s20.5-9.2,20.5-20.5
			C-320.5,389.6-329.7,380.5-341,380.5z M-341,417c-8.8,0-16-7.2-16-16c0-8.8,7.2-16,16-16s16,7.2,16,16
			C-325,409.9-332.2,417-341,417z"/>
	</g>
</g>
</svg>
