<?xml version="1.0" encoding="utf-8"?>
<!-- Generator: Adobe Illustrator 19.0.0, SVG Export Plug-In . SVG Version: 6.00 Build 0)  -->
<svg version="1.1" id="Layer_1" xmlns="http://www.w3.org/2000/svg" xmlns:xlink="http://www.w3.org/1999/xlink" x="0px" y="0px"
	 viewBox="-175 361.7 448.9 78.4" style="enable-background:new -175 361.7 448.9 78.4;" xml:space="preserve">
<style type="text/css">
	.st0{fill:#FFFFFF;}
	.st1{fill:#F9BE14;}
	.st2{display:none;}
	.st3{display:inline;}
	.st4{display:inline;fill:#FFFFFF;}
</style>
<title>Asset 1</title>
<g id="Layer_2">
	<g id="Layer_1-2">
		<path class="st0" d="M-175,426.9v-64h16.3v24h20.9v-24h16.3v64h-16.3v-25.6h-20.9v25.6H-175z"/>
		<path class="st0" d="M-112.6,395.6c0-20.9,16.1-33.9,33.7-33.9c19.7,0,33.8,15.4,33.8,33.2s-14,33.2-33.9,33.2
			C-99.1,428.1-112.6,412.1-112.6,395.6L-112.6,395.6z M-96.3,394.9c0,9.8,6.7,18.9,17.6,18.9c11.6,0,17.2-10.5,17.2-18.8
			c0-8.2-5.6-18.9-17.4-18.9C-90.2,376.1-96.4,385.8-96.3,394.9L-96.3,394.9L-96.3,394.9z"/>
		<path class="st0" d="M126.6,412.6H147v14.3h-40.4v-10.7l22-38.9h-22V363H147v13.2L126.6,412.6z"/>
		<path class="st0" d="M166.8,426.9h-17.7l25.3-64h14.1l24.5,64h-17.9l-3-9.2h-22.4L166.8,426.9z M180.8,382.4l-6.9,22.4H188
			L180.8,382.4z"/>
		<path class="st0" d="M222.1,377.3h-12.6V363H251v14.4h-12.5V427h-16.3v-49.7H222.1z"/>
		<path class="st0" d="M257.6,363h16.3v64h-16.3V363z"/>
		<path class="st1" d="M-9,390.5v13h19.1c-0.8,3-2.7,5.7-5.3,7.4c-3,2-6.5,3-10,2.9c-8,0-17.5-5.8-17.5-19.2
			c0-12.6,9.4-18.6,17.4-18.6c3.9,0,7.8,1.4,10.7,4c1.3,1.3,2.5,2.7,3.4,4.3h18.3c-3.6-12.3-16.7-22.6-32-22.6
			c-18.9,0-34.2,13.8-34.2,32.9c-0.1,18.5,14.9,33.5,33.3,33.5c0.2,0,0.4,0,0.7,0c10.6,0,24.9-5.3,31.1-19.4
			c2.4-5.8,3.4-12.1,2.9-18.3H-9V390.5z"/>
		<path class="st1" d="M102.2,395c0-17.8-14.1-33.2-33.8-33.2c-17.6,0-33.7,13-33.7,33.9v0.1c0.2,14.9,10.5,27.8,25,31.4l8.7,12.9
			l8.8-12.9C91.9,423.4,102.3,410.2,102.2,395z M68.7,413.8c-11,0-17.6-9.2-17.6-18.9v-0.1c0-9,6.1-18.7,17.5-18.7
			c11.8,0,17.4,10.6,17.4,18.9C85.9,403.3,80.3,413.8,68.7,413.8z"/>
		<path class="st0" d="M68.5,387c-4.8,0-7.4,4.1-7.4,7.9l0,0c0,4.1,2.8,8,7.4,8c4.9,0,7.3-4.4,7.3-7.9S73.4,387,68.5,387z"/>
	</g>
</g>
<g class="st2">
	<g class="st3">
		<path class="st0" d="M207.4,398.8c0,3.1-0.7,6-1.8,8.6c-1.1,2.6-2.6,5.1-4.9,7.1c-2,2-4.4,3.5-7.1,4.9c-2.6,1.1-5.5,1.8-8.6,1.8
			H132v-13h53.2c1.3,0,2.4-0.2,3.5-0.7c1.1-0.4,2-1.1,2.9-2c0.9-0.9,1.5-1.8,2-2.9s0.7-2.2,0.7-3.5c0-1.3-0.2-2.4-0.7-3.5
			c-0.4-1.1-1.1-2-2-2.9c-0.9-0.9-1.8-1.5-2.9-2c-1.1-0.4-2.2-0.7-3.5-0.7h-20.7v-13h21c3.1,0,6,0.7,8.6,1.8
			c2.6,1.1,5.1,2.6,7.1,4.9c2,2,3.5,4.4,4.9,7.1C207,392.8,207.4,395.7,207.4,398.8z"/>
		<path class="st1" d="M159.8,398.8c0,3.1-0.7,6-1.8,8.6c-1.1,2.6-2.6,5.1-4.9,7.1c-2,2-4.4,3.5-7.1,4.9c-2.6,1.1-5.5,1.8-8.6,1.8
			h-36.6v-13h36.6c1.3,0,2.4-0.2,3.5-0.7s2-1.1,2.9-2c0.9-0.9,1.5-1.8,2-2.9c0.4-1.1,0.7-2.2,0.7-3.5c0-1.3-0.2-2.4-0.7-3.5
			c-0.4-1.1-1.1-2-2-2.9c-0.9-0.9-1.8-1.5-2.9-2s-2.2-0.7-3.5-0.7h-20.7v-13h21c3.1,0,6,0.7,8.6,1.8c2.6,1.1,5.1,2.6,7.1,4.9
			c2,2,3.5,4.4,4.9,7.1C159.1,392.8,159.8,395.7,159.8,398.8z"/>
		<path class="st1" d="M112.1,402.8c0-13.9-11-26-26.5-26c-13.9,0-26.5,10.2-26.5,26.7l0,0c0,11,7.7,21.6,19.6,24.7l6.8,10.2
			l6.8-10.2C104.2,425.1,112.1,414.7,112.1,402.8z M85.6,417.6c-8.6,0-13.9-7.3-13.9-14.8l0,0c0-7.1,4.9-14.6,13.7-14.6
			c9.3,0,13.7,8.4,13.7,14.8C99.3,409.4,94.9,417.6,85.6,417.6z"/>
		<path class="st1" d="M85.6,396.6c-3.8,0-5.7,3.3-5.7,6.2l0,0c0,3.3,2.2,6.2,5.7,6.2c3.8,0,5.7-3.5,5.7-6.2
			C91.4,400.1,89.4,396.6,85.6,396.6z"/>
		<path class="st0" d="M13.3,421.1v-57.6h13v57.6H13.3z"/>
		<path class="st1" d="M129.6,425.9c-3.8,0-5.7,3.1-5.7,6l0,0c0,3.1,2.2,6.2,5.7,6.2c3.8,0,5.5-3.3,5.5-6.2
			C135.1,429.5,133.3,425.9,129.6,425.9z"/>
		<path class="st0" d="M-69.7,425.9c-3.8,0-5.7,3.1-5.7,6l0,0c0,3.1,2.2,6.2,5.7,6.2c3.8,0,5.5-3.3,5.5-6.2
			C-64.2,429.5-66,425.9-69.7,425.9z"/>
		<path class="st0" d="M-84.3,425.9c-3.8,0-5.7,3.1-5.7,6l0,0c0,3.1,2.2,6.2,5.7,6.2c3.8,0,5.5-3.3,5.5-6.2
			C-78.5,429.5-80.3,425.9-84.3,425.9z"/>
		<path class="st0" d="M-108.6,399.9c0-2.9,0.4-5.5,1.5-8.2c1.1-2.4,2.6-4.9,4.6-6.8c2-2,4.2-3.5,6.8-4.6c2.4-1.1,5.3-1.5,8.2-1.5
			h7.7v13h-7.7c-1.1,0-2,0.2-3.1,0.7c-1.1,0.4-1.8,0.9-2.6,1.8c-0.9,0.7-1.3,1.5-1.8,2.6c-0.4,1.1-0.7,2-0.7,3.1
			c0,1.1,0.2,2.2,0.7,3.1c0.4,0.9,0.9,1.8,1.8,2.6c0.7,0.7,1.5,1.3,2.6,1.8c1.1,0.4,2,0.7,3.1,0.7h25.6v13h-25.6
			c-2.9,0-5.7-0.7-8.2-1.8c-2.6-1.1-4.9-2.6-6.6-4.4c-2-2-3.3-4.2-4.4-6.6C-107.9,405.6-108.6,402.8-108.6,399.9z"/>
		<path class="st0" d="M-47.6,376.7c3.1,0,6,0.7,8.6,1.8c2.6,1.1,5.1,2.6,7.1,4.9c2,2,3.5,4.4,4.9,7.1c1.1,2.6,1.8,5.5,1.8,8.6v22.1
			h-13V399c0-1.3-0.2-2.4-0.7-3.5c-0.4-1.1-1.1-2-2-2.9c-0.9-0.9-1.8-1.5-2.9-2c-1.1-0.4-2.2-0.7-3.5-0.7c-1.3,0-2.4,0.2-3.5,0.7
			c-1.1,0.4-2,1.1-2.9,2c-0.9,0.9-1.5,1.8-2,2.9s-0.7,2.2-0.7,3.5v22.1h-13V399c0-3.1,0.7-6,1.8-8.6c1.1-2.6,2.6-5.1,4.9-7.1
			c2-2,4.4-3.5,7.1-4.9C-53.6,377.4-50.7,376.7-47.6,376.7z"/>
		<g>
			<path class="st0" d="M-9,380.5H3.8v19c0,14.3-6.4,21.6-19.2,21.6h-10.4v-12.4h10.4c4.2,0,6.4-3.1,6.4-9.3
				C-9,399.5-9,380.5-9,380.5z"/>
		</g>
		<path class="st0" d="M45.7,363.7c-3.8,0-5.7,3.1-5.7,6l0,0c0,3.1,2.2,6.2,5.7,6.2c3.8,0,5.5-3.3,5.5-6.2
			C51.4,367,49.4,363.7,45.7,363.7z"/>
		<path class="st0" d="M0,363.7c-3.8,0-5.7,3.1-5.7,6l0,0c0,3.1,2.2,6.2,5.7,6.2c3.8,0,5.5-3.3,5.5-6.2C5.8,367,3.8,363.7,0,363.7z"
			/>
		<path class="st0" d="M-13.9,363.7c-3.8,0-5.7,3.1-5.7,6l0,0c0,3.1,2.2,6.2,5.7,6.2c3.8,0,5.5-3.3,5.5-6.2
			C-8.4,367-10.1,363.7-13.9,363.7z"/>
	</g>
	<g class="st3">
		<path class="st0" d="M39.3,380.5v35.3c0,3.5-0.7,6.2-2,7.7c-0.9,0.9-2,1.5-3.5,1.8v10.2c12.4-0.9,18.3-7.5,18.3-20.1v-34.9H39.3z"
			/>
	</g>
	<path class="st4" d="M38,423.7c-0.2,0.2-0.7,0.4-0.9,0.4c-0.2,0.2-0.7,0.2-0.9,0.4c-0.7,0.2-1.1,0.4-2,0.7
		c-0.9,0.2-1.8,0.2-2.6,0.2v10.2c1.5,0,3.1,0,4.6-0.4c0.7-0.2,1.3-0.2,2-0.4l0,0v-11.3C38.2,423.5,38,423.7,38,423.7z"/>
</g>
</svg>
