<?xml version="1.0" encoding="utf-8"?>
<!-- Generator: Adobe Illustrator 19.0.0, SVG Export Plug-In . SVG Version: 6.00 Build 0)  -->
<svg version="1.1" id="Layer_1" xmlns="http://www.w3.org/2000/svg" xmlns:xlink="http://www.w3.org/1999/xlink" x="0px" y="0px"
	 viewBox="-183 350.6 463 98" style="enable-background:new -183 350.6 463 98;" xml:space="preserve">
<style type="text/css">
	.st0{fill:#F9BE14;}
	.st1{display:none;}
	.st2{display:inline;}
	.st3{fill:#FFFFFF;}
	.st4{display:inline;fill:#FFFFFF;}
</style>
<title>Asset 1</title>
<g id="Layer_2">
	<g id="Layer_1-2">
		<path d="M-175.9,425.6v-64h16.3v24h20.9v-24h16.3v64h-16.3V400h-20.9v25.6H-175.9z"/>
		<path d="M-113.5,394.3c0-20.9,16.1-33.9,33.7-33.9c19.7,0,33.8,15.4,33.8,33.2s-14,33.2-33.9,33.2
			C-100,426.8-113.5,410.8-113.5,394.3L-113.5,394.3z M-97.3,393.6c0,9.8,6.7,18.9,17.6,18.9c11.6,0,17.2-10.5,17.2-18.8
			c0-8.2-5.6-18.9-17.4-18.9C-91.1,374.8-97.3,384.5-97.3,393.6L-97.3,393.6L-97.3,393.6z"/>
		<path d="M125.7,411.3h20.4v14.3h-40.4v-10.7l22-38.9h-22v-14.3h40.4v13.2L125.7,411.3z"/>
		<path d="M165.9,425.6h-17.7l25.3-64h14.1l24.5,64h-17.9l-3-9.2h-22.4L165.9,425.6z M179.9,381.1l-6.9,22.4h14.1L179.9,381.1z"/>
		<path d="M221.2,376h-12.6v-14.3h41.5v14.4h-12.5v49.6h-16.3L221.2,376L221.2,376z"/>
		<path d="M256.7,361.7H273v64h-16.3V361.7z"/>
		<path class="st0" d="M-9.9,389.2v13H9.2c-0.8,3-2.7,5.7-5.3,7.4c-3,2-6.5,3-10,2.9c-8,0-17.5-5.8-17.5-19.2
			c0-12.6,9.4-18.6,17.4-18.6c3.9,0,7.8,1.4,10.7,4c1.3,1.3,2.5,2.7,3.4,4.3h18.3c-3.6-12.3-16.7-22.6-32-22.6
			c-18.9,0-34.2,13.8-34.2,32.9c-0.1,18.5,14.9,33.5,33.3,33.5c0.2,0,0.4,0,0.7,0c10.6,0,24.9-5.3,31.1-19.4
			c2.4-5.8,3.4-12.1,2.9-18.3H-9.9V389.2z"/>
		<path class="st0" d="M101.3,393.7c0-17.8-14.1-33.2-33.8-33.2c-17.6,0-33.7,13-33.7,33.9v0.1c0.2,14.9,10.5,27.8,25,31.4l8.7,12.9
			l8.8-12.9C91,422.1,101.4,408.9,101.3,393.7z M67.8,412.5c-11,0-17.6-9.2-17.6-18.9v-0.1c0-9,6.1-18.7,17.5-18.7
			c11.8,0,17.4,10.6,17.4,18.9C85,402,79.4,412.5,67.8,412.5z"/>
		<path d="M67.6,385.7c-4.8,0-7.4,4.1-7.4,7.9l0,0c0,4.1,2.8,8,7.4,8c4.9,0,7.3-4.4,7.3-7.9S72.5,385.7,67.6,385.7z"/>
	</g>
</g>
<g class="st1">
	<g class="st2">
		<path class="st3" d="M32.4,760.4c0,3.1-0.7,6-1.8,8.6s-2.6,5.1-4.9,7.1c-2,2-4.4,3.5-7.1,4.9c-2.6,1.1-5.5,1.8-8.6,1.8h-53v-13
			h53.2c1.3,0,2.4-0.2,3.5-0.7c1.1-0.4,2-1.1,2.9-2s1.5-1.8,2-2.9c0.5-1.1,0.7-2.2,0.7-3.5c0-1.3-0.2-2.4-0.7-3.5
			c-0.4-1.1-1.1-2-2-2.9s-1.8-1.5-2.9-2c-1.1-0.4-2.2-0.7-3.5-0.7h-20.7v-13h21c3.1,0,6,0.7,8.6,1.8c2.6,1.1,5.1,2.6,7.1,4.9
			c2,2,3.5,4.4,4.9,7.1C32,754.4,32.4,757.3,32.4,760.4z"/>
		<path class="st0" d="M-15.2,760.4c0,3.1-0.7,6-1.8,8.6s-2.6,5.1-4.9,7.1c-2,2-4.4,3.5-7.1,4.9c-2.6,1.1-5.5,1.8-8.6,1.8h-36.6v-13
			h36.6c1.3,0,2.4-0.2,3.5-0.7s2-1.1,2.9-2s1.5-1.8,2-2.9c0.4-1.1,0.7-2.2,0.7-3.5c0-1.3-0.2-2.4-0.7-3.5c-0.4-1.1-1.1-2-2-2.9
			s-1.8-1.5-2.9-2s-2.2-0.7-3.5-0.7h-20.7v-13h21c3.1,0,6,0.7,8.6,1.8c2.6,1.1,5.1,2.6,7.1,4.9c2,2,3.5,4.4,4.9,7.1
			C-15.9,754.4-15.2,757.3-15.2,760.4z"/>
		<path class="st0" d="M-62.9,764.4c0-13.9-11-26-26.5-26c-13.9,0-26.5,10.2-26.5,26.7l0,0c0,11,7.7,21.6,19.6,24.7l6.8,10.2
			l6.8-10.2C-70.8,786.7-62.9,776.3-62.9,764.4z M-89.4,779.2c-8.6,0-13.9-7.3-13.9-14.8l0,0c0-7.1,4.9-14.6,13.7-14.6
			c9.3,0,13.7,8.4,13.7,14.8C-75.7,771-80.1,779.2-89.4,779.2z"/>
		<path class="st0" d="M-89.4,758.2c-3.8,0-5.7,3.3-5.7,6.2l0,0c0,3.3,2.2,6.2,5.7,6.2c3.8,0,5.7-3.5,5.7-6.2
			C-83.6,761.7-85.6,758.2-89.4,758.2z"/>
		<path class="st3" d="M-161.7,782.7v-57.6h13v57.6H-161.7z"/>
		<path class="st0" d="M-45.4,787.5c-3.8,0-5.7,3.1-5.7,6l0,0c0,3.1,2.2,6.2,5.7,6.2c3.8,0,5.5-3.3,5.5-6.2
			C-39.9,791.1-41.7,787.5-45.4,787.5z"/>
		<path class="st3" d="M-244.7,787.5c-3.8,0-5.7,3.1-5.7,6l0,0c0,3.1,2.2,6.2,5.7,6.2c3.8,0,5.5-3.3,5.5-6.2
			C-239.2,791.1-241,787.5-244.7,787.5z"/>
		<path class="st3" d="M-259.3,787.5c-3.8,0-5.7,3.1-5.7,6l0,0c0,3.1,2.2,6.2,5.7,6.2c3.8,0,5.5-3.3,5.5-6.2
			C-253.5,791.1-255.3,787.5-259.3,787.5z"/>
		<path class="st3" d="M-283.6,761.5c0-2.9,0.4-5.5,1.5-8.2c1.1-2.4,2.6-4.9,4.6-6.8c2-2,4.2-3.5,6.8-4.6c2.4-1.1,5.3-1.5,8.2-1.5
			h7.7v13h-7.7c-1.1,0-2,0.2-3.1,0.7c-1.1,0.4-1.8,0.9-2.6,1.8c-0.9,0.7-1.3,1.5-1.8,2.6c-0.4,1.1-0.7,2-0.7,3.1
			c0,1.1,0.2,2.2,0.7,3.1c0.4,0.9,0.9,1.8,1.8,2.6c0.7,0.7,1.5,1.3,2.6,1.8c1.1,0.4,2,0.7,3.1,0.7h25.6v13h-25.6
			c-2.9,0-5.7-0.7-8.2-1.8c-2.6-1.1-4.9-2.6-6.6-4.4c-2-2-3.3-4.2-4.4-6.6C-282.9,767.2-283.6,764.4-283.6,761.5z"/>
		<path class="st3" d="M-222.6,738.3c3.1,0,6,0.7,8.6,1.8c2.6,1.1,5.1,2.6,7.1,4.9c2,2,3.5,4.4,4.9,7.1c1.1,2.6,1.8,5.5,1.8,8.6
			v22.1h-13v-22.2c0-1.3-0.2-2.4-0.7-3.5c-0.4-1.1-1.1-2-2-2.9c-0.9-0.9-1.8-1.5-2.9-2c-1.1-0.4-2.2-0.7-3.5-0.7s-2.4,0.2-3.5,0.7
			c-1.1,0.4-2,1.1-2.9,2c-0.9,0.9-1.5,1.8-2,2.9c-0.5,1.1-0.7,2.2-0.7,3.5v22.1h-13v-22.1c0-3.1,0.7-6,1.8-8.6s2.6-5.1,4.9-7.1
			c2-2,4.4-3.5,7.1-4.9C-228.6,739-225.7,738.3-222.6,738.3z"/>
		<g>
			<path class="st3" d="M-184,742.1h12.8v19c0,14.3-6.4,21.6-19.2,21.6h-10.4v-12.4h10.4c4.2,0,6.4-3.1,6.4-9.3
				C-184,761.1-184,742.1-184,742.1z"/>
		</g>
		<path class="st3" d="M-129.3,725.3c-3.8,0-5.7,3.1-5.7,6l0,0c0,3.1,2.2,6.2,5.7,6.2c3.8,0,5.5-3.3,5.5-6.2
			C-123.6,728.6-125.6,725.3-129.3,725.3z"/>
		<path class="st3" d="M-175,725.3c-3.8,0-5.7,3.1-5.7,6l0,0c0,3.1,2.2,6.2,5.7,6.2c3.8,0,5.5-3.3,5.5-6.2
			C-169.2,728.6-171.2,725.3-175,725.3z"/>
		<path class="st3" d="M-188.9,725.3c-3.8,0-5.7,3.1-5.7,6l0,0c0,3.1,2.2,6.2,5.7,6.2c3.8,0,5.5-3.3,5.5-6.2
			C-183.4,728.6-185.1,725.3-188.9,725.3z"/>
	</g>
	<g class="st2">
		<path class="st3" d="M-135.7,742.1v35.3c0,3.5-0.7,6.2-2,7.7c-0.9,0.9-2,1.5-3.5,1.8v10.2c12.4-0.9,18.3-7.5,18.3-20.1v-34.9
			H-135.7z"/>
	</g>
	<path class="st4" d="M-137,785.3c-0.2,0.2-0.7,0.4-0.9,0.4c-0.2,0.2-0.7,0.2-0.9,0.4c-0.7,0.2-1.1,0.4-2,0.7
		c-0.9,0.2-1.8,0.2-2.6,0.2v10.2c1.5,0,3.1,0,4.6-0.4c0.7-0.2,1.3-0.2,2-0.4l0,0v-11.3C-136.8,785.1-137,785.3-137,785.3z"/>
</g>
</svg>
