<?xml version="1.0" encoding="utf-8"?>
<!-- Generator: Adobe Illustrator 22.0.1, SVG Export Plug-In . SVG Version: 6.00 Build 0)  -->
<svg version="1.1" id="Layer_1" xmlns="http://www.w3.org/2000/svg" xmlns:xlink="http://www.w3.org/1999/xlink" x="0px" y="0px"
	 viewBox="0 0 1000 1000" style="enable-background:new 0 0 1000 1000;" xml:space="preserve">
<style type="text/css">
	.st0{fill:#265D8D;}
	.st1{fill:#1DB4BA;}
	.st2{fill:#424A5F;}
	.st3{fill:#11AFB5;}
	.st4{fill:#FFFFFF;}
	.st5{fill:#80807F;}
	.st6{fill:#434D5C;}
</style>
<path class="st0" d="M-3696.4-1402.4c0.6-0.1,1.2,0,1.4,0.7C-3695.9-1401.1-3696-1401.9-3696.4-1402.4z"/>
<path class="st0" d="M-3697.3-1403.1c0.3,0.2,0.7,0.5,1,0.7C-3696.6-1402.6-3697-1402.8-3697.3-1403.1z"/>
<path class="st0" d="M-4795.3-1402.4c0.6-0.1,1.2,0,1.4,0.7C-4794.8-1401.1-4795-1401.9-4795.3-1402.4z"/>
<path class="st0" d="M-4796.3-1403.1c0.3,0.2,0.7,0.5,1,0.7C-4795.6-1402.6-4795.9-1402.8-4796.3-1403.1z"/>
<g>
	<g>
		<path class="st1" d="M809.6,644.2c-1.5-3.4-1.8-6.2-1.1-9.2c1.1-4.3,4.5-7,8.8-6.9c4.5,0.2,7.8,3.3,8.2,7.9c0.2,2,0.1,4.1,0.1,6.1
			c0,1.4,0.4,2.2,1.9,2c0.1,0,0.2,0,0.3,0c7.4,0.4,7.4,0.4,7.4-7.1c0-1.6-0.1-3.2,0-4.7c0.1-1.1-0.6-2.7,1.6-2.6
			c1.7,0.1,2.3,1.1,2.3,2.7c0,2.7,0,5.4,0,8.1c0,1.6-0.8,3.7,2.4,3.6c4.1-0.1,5.3-0.7,5.5-3.8c0.1-2.7,0-5.4,0.1-8.1
			c0-1-0.7-2.5,1.2-2.6c1.8-0.1,2.7,0.9,2.8,2.6c0.1,2.7,0.2,5.4,0,8.1c-0.3,2.8,1.1,3.6,3.5,3.7c2.6,0.1,4.2-0.8,4.2-3.6
			c0-2.7-0.1-5.4,0-8.1c0-1.1-0.7-2.7,1.4-2.8c1.9,0,2.6,1.1,2.6,2.8c0,2.4,0.1,4.7,0,7.1c-0.1,2.9,0.9,4.5,4.1,4.5
			c3.2,0,4.1-1.7,4.1-4.5c0-5.6,0-11.3,0-16.9c0-1-0.8-2.8,1.3-2.9c2-0.1,2.7,1.2,2.7,3.1c0,5.3,0,10.6,0,15.9
			c0,4.6,1.2,5.6,5.6,5.3c2.7-0.2,3.7-1.6,3.7-4.2c0-5.9,0-11.7,0-17.6c0-1-0.6-2.5,1.2-2.6c1.6-0.1,2.8,0.7,2.8,2.3
			c0,6.8,0.7,13.6-0.3,20.3c-0.9,5.8-5.6,6.7-12.8,5.1c-1.6-0.3-2.9-1-4.3,0.1c-0.2,0.1-0.4,0.2-0.6,0.2c-3.4,0.7-6.9-1.3-9.8-0.9
			c-3.2,0.4-6.2,1.4-9.5,0.4c-0.6-0.2-1.3-0.7-1.9-0.6c-13.5,3-27.2,0.5-40.7,1.3c-1,0.1-2,0.1-3,0c-2.9-0.2-5.2-0.4-5.5,3.9
			c-0.2,3.3-4.4,5.2-7.3,4.1c-0.9-0.3-1.6-0.8-1.6-1.9c0-1.2,1-1.1,1.7-1.1c3-0.2,3.8-2,3.8-4.6c0-4.7-0.1-9.5,0-14.2
			c0-0.9-0.6-2.3,1.1-2.3c1.4,0,2.8,0.4,2.9,2.2c0.1,2.4,0.2,4.8,0,7.1c-0.2,2.3,0.8,3,2.9,2.9C805.3,644.2,807.2,644.2,809.6,644.2
			z M822,640.1c0.1-1.2-0.1-2.7-0.5-4.3c-0.6-2.3-1.9-3.7-4.4-3.9c-2.7-0.2-4.2,1.3-5,3.7c-1,3.2,0.1,6.3,2.7,7.6
			C819.2,645.5,822,644.4,822,640.1z"/>
		<path class="st1" d="M677.8,631.4c0-2.9,0-5.9,0-8.8c0-1.1-0.6-2.8,1.5-2.7c1.6,0.1,2.5,1,2.5,2.6c0,4,0,7.9,0.1,11.9
			c0,1.8,0.1,3.6,0,5.4c-0.1,2.9,1,4.5,4.1,4.5c3.2,0,4.1-1.8,4-4.6c0-1.7,0-3.4,0-5.1c0-1.1-0.3-2.4,1.5-2.4
			c1.4,0.1,2.4,0.7,2.4,2.2c0.1,1.9,0,3.8,0,5.8c0,1.5,0.3,3.1,1.9,3.6c2.2,0.7,4.5,0.7,6.6,0c0.8-0.3,0.5-1.4,0.5-2.2
			c0-3,0-6.1,0-9.1c0-1.1-0.7-2.8,1.4-2.7c1.9,0,2.5,1.2,2.5,2.9c-0.1,2.7,0,5.4,0,8.1c0,1.6-0.7,3.6,2.2,3.4
			c2.5-0.2,5.3,0.4,5.5-3.3c0.2-2.8,0-5.6,0.1-8.5c0-1-0.7-2.7,1.5-2.7c1.7,0,2.5,1,2.6,2.5c0.1,2.8,0.2,5.7,0,8.5
			c-0.2,2.7,1.2,3.3,3.4,3.5c2.3,0.2,4.1-0.4,4.3-3.1c0.1-2.9,0-5.9,0.1-8.8c0-1-0.6-2.5,1.3-2.5c1.6-0.1,2.6,0.7,2.7,2.4
			c0.1,2.6,0.2,5.2,0.1,7.8c-0.1,3.3,1.6,4.3,4.6,4.3c3,0,4.7-1,4.6-4.3c-0.1-5.9-0.1-11.7,0-17.6c0-1-0.6-2.5,1.3-2.5
			c1.4,0,2.6,0.7,2.6,2.1c0,7.1,0.9,14.3-0.5,21.3c-1,4.9-5.4,5.9-12.4,4.3c-1.8-0.4-3.3-1-5,0.1c-0.7,0.5-1.8,0.6-2.6,0.4
			c-8.5-1.7-17.1,1.3-25.6-0.1c-4.2-0.7-8.2-0.1-12.3,0.1c-5,0.2-7.5-2.3-7.7-7.3C677.8,637.7,677.8,634.5,677.8,631.4z"/>
		<path class="st1" d="M654.1,634.5c-0.5-2.7,0.7-4.4,3-5.4c4.7-2.2,10.6-0.4,13.3,4.1c2.7,4.3,3.8,11.9,2.6,17.5
			c-3.2-2.5-6.9-2.5-10.6-2.4c-6.3,0.1-12.6,0-18.9,0c-2.4,0-4.7-0.2-7-0.9c-5.7-1.6-8.2-6.4-6.7-12.5c1.3-4.9,5.6-7.6,10.6-6.4
			c3.9,0.9,6.3,4.2,6.7,9.1c0.2,2.2-1.1,5.1,0.8,6.3c1.5,1,4.1,0.3,6.3,0.3c4.1,0,8.1-0.1,12.2,0.1c2.7,0.1,2.9-1,2.5-3.2
			C667.1,632.7,662.1,630.4,654.1,634.5z M643.2,639c0-0.3-0.1-1.7-0.4-3c-0.5-2.3-1.8-3.8-4.3-4c-3.1-0.2-4.5,1.4-5.2,4.2
			c-0.8,3.3,0.5,6.1,3.3,7.3C641.5,645.5,643.3,644.5,643.2,639z"/>
		<path class="st1" d="M770.3,648.5c-3.1-0.6-6-0.7-8.5-2.1c-4.3-2.3-5.9-7.4-3.9-12.6c1.6-4.3,5.7-6.4,10.4-5.3
			c3.2,0.7,5.1,2.8,6,5.8c1.6,5.1,1.5,10.3-0.2,15.3c-1.6,4.7-7.5,7.8-12.4,6.8c-1.3-0.3-2.4-0.9-2.4-2.4c0.1-1.7,1.5-0.9,2.4-0.9
			C765.1,652.9,768.1,652.2,770.3,648.5z M771.2,640.7c-0.2-1.7-0.3-3.4-0.7-5c-0.7-2.8-3.1-4.3-5.9-3.6c-2.3,0.6-3.3,2.2-3.5,4.4
			c-0.3,2.7-0.1,5.3,2.6,6.7C768,645.5,771.1,644.4,771.2,640.7z"/>
		<path class="st1" d="M752.3,634.6c0,3.8,0,7.6,0,11.5c0,0.9,0.4,2.2-1.3,2.2c-1.3,0-2.2-0.5-2.5-1.8c-0.2-0.8-0.2-1.6-0.2-2.3
			c0-7.1,0-14.2,0-21.2c0-1.1-0.8-3,1.5-3c2.1,0,2.5,1.5,2.5,3.2C752.3,627,752.3,630.8,752.3,634.6z"/>
		<path class="st1" d="M686.5,653.5c0.1-2,2-3.1,3.4-1.9c1.1,1,1.7,1.6,2.9,0c0.8-1,2.1-0.7,3,0.2c0.9,0.9,0.9,2-0.1,3
			c-0.9,0.9-2.2,1.2-2.9,0.2c-1.2-1.7-1.8-1-2.8,0.1c-0.6,0.7-1.6,0.7-2.5,0.1C686.9,654.7,686.5,654.1,686.5,653.5z"/>
		<path class="st1" d="M637.9,623c-0.1,1.2-0.9,2-2.2,2c-1.4,0-2.4-0.8-2.3-2.3c0.1-1.2,0.9-2.1,2.2-2.1
			C637,620.6,637.8,621.4,637.9,623z"/>
		<path class="st1" d="M817.2,620.5c1.4,0.2,2.3,0.9,2.2,2.4c-0.1,1.3-1,2.1-2.2,2c-1.5,0-2.3-1-2.2-2.4
			C815,621.4,815.8,620.6,817.2,620.5z"/>
		<path class="st1" d="M641.5,625.1c-1.3-0.1-2.2-0.8-2.3-2.1c-0.1-1.5,0.8-2.4,2.2-2.4c1.3,0,2.4,0.8,2.3,2.4
			C643.7,624.3,642.8,624.9,641.5,625.1z"/>
	</g>
	<g>
		<path class="st2" d="M144.6,638.9h-1c-1.2,0-2.1-0.3-2.7-0.9c-0.3-0.2-0.6-1-1-2.4l-0.1-0.9l-0.4,1l-0.4,1.1
			c-0.1,0.4-0.3,0.7-0.4,0.8l-0.6,1.2h-48c-2.1-0.3-3.5-0.9-4.4-1.8c-1.4-1.5-2.1-3.8-2.1-6.8c0.8,1,2.1,1.6,3.8,2.1l1.2,0.2l1,0.2
			l45.8,0.3l-0.1-0.3c-0.1-0.5-0.7-1.2-1.9-2.3c-1.3-1.1-2.5-1.6-3.6-1.6l-4.4,0.2l-8.5,0.4l-4.7,0.1l-3.3,0.1h-1.9l-1.3,0l-1,0
			l-5.7-0.2c-1.2,0-2.2-0.1-3.1-0.3c-0.9-0.2-1.7-0.5-2.3-0.8c-0.4-0.1-0.6-0.5-0.6-1c0-0.5,0.3-1.4,0.8-2.7
			c0.3-0.7,0.6-1.2,0.8-1.4l0.4-0.5l0.5-0.5c1.1-1.1,2.2-2,3.3-2.9l1.6-1.2l1.8-1.2l1.3-0.7l1.9-1l4-1.9l3.3-1.2l5.1-1.4l-1.8,2.4
			l-1,1.4l-0.8,1.3c-1.1,0.1-2.6,0.6-4.6,1.3l-4.4,1.7l-1.4,0.5l-0.8,0.4c-0.7,0.2-1.3,0.6-2,1c-2.1,1.1-3.4,2-3.8,2.8l0,0.2
			c0.1,0.1,0.7,0.3,1.9,0.5c1.2,0.2,2.6,0.3,4.3,0.3l6.6,0.1l7.2,0.1h9.8l2.3,0l3.8-0.1c1.7,0,3.3,0.5,4.8,1.4
			c1.2,0.7,2.1,1.5,2.6,2.4l0.4,0.8l0.3,1c0.1,0.7,0.4,1.3,0.7,1.9c0.2,0.3,0.5,0.5,0.8,0.7l0.6,0.1l0.7,0.1h0.9V638.9z"/>
		<path class="st2" d="M144.6,632.8h13.8l-0.2-0.5c-0.4-0.7-1-1.4-1.8-2c-1.1-0.8-2.2-1.1-3.5-1.1l-1,0c-0.4,0-0.6,0-0.8,0.1
			l1.3-2.6l1.5-2.7l0.3-0.5l-0.2,0.3l0.7-0.3l1-0.4c1.6-0.7,3.1-1,4.5-1c2.2,0,4.1,0.8,5.7,2.4c1.3,1.3,1.9,2.4,1.9,3.4
			c0,0.3-0.1,0.6-0.2,0.9c-0.1,0.3-0.4,0.8-0.8,1.4l-0.9,1.3l-0.4,0.9l-0.1,0.4h4.1v6.1h-7.2l-0.8-1.4l-0.4-1l-0.6-0.9l-0.3-0.5
			l-0.2,0.5l-0.9,1.6l-1.1,1.6h-13.6V632.8z"/>
		<path class="st2" d="M169.7,633.2l9.9-0.3l0.1-0.2l1.8-3.8l1.2-2.4c1.3-1.8,2.9-3.3,5-4.4l2.7-1.2c0.8-0.3,1.4-0.5,2-0.5
			c0.6,0,1,0.2,1.1,0.7l0.7,2.2l1.6,4.4l0.3,0.9l0.3,1.3c0.1,0.6,0.2,1.1,0.2,1.8c0,0.2-0.5,1.3-1.5,3.1c-1,1.8-1.7,2.8-1.9,3
			l-11-3.6c-0.4,0.1-1.2,1.2-2.4,3.4c-0.4,0.9-0.9,1.3-1.5,1.4l-8.3,0.2L169.7,633.2z M191.4,630.9c-0.1-0.8-0.3-1.5-0.5-2.2
			c-0.5-1.5-1.1-2.3-2-2.4l-0.8,0l-0.7,0.2c-0.1,0-0.5,0.2-1,0.5l-1.4,0.8l-0.6,0.4L191.4,630.9z"/>
		<path class="st3" d="M248,638.9h-2.7c-0.3,0.7-0.8,1.5-1.3,2.3c-0.4,0.8-0.7,1.2-0.9,1.2l-0.3,0l-0.6-0.2l-2-0.8l-1.3-0.5l-1-0.4
			l-1-0.4l-0.5-0.2l-0.4-0.3c-4.4-2.2-6.7-3.7-6.7-4.5c0-0.4,0.3-1.1,0.9-2.1l1.3-2.2l0.2-0.5l-0.8,0.2l-0.7,0.2l-1.9,0.6
			c-2.3,0.8-3.4,1.5-3.4,2.1l1.3,7.2l1.3,7.2c0,1.4-0.3,3.3-0.9,5.5c-0.6,2.2-1.2,3.3-1.8,3.5l-3.1-18.6l0-0.8
			c0-0.9,0.2-2.1,0.7-3.5c0.1-0.4,0.3-0.8,0.4-1.1c0.2-0.4,0.4-0.7,0.6-1.2l0.8-1.3l1-1.6c0.9-1.4,3.6-2.8,8-4.1l4.6-1.2
			c1.3-0.3,2.3-0.4,3-0.4l0.1,0.6l0.4,1.9l0.1,1c0,0.1,0.1,0.3,0.1,0.5s0.2,0.6,0.3,1.1c0.2,0.5,0.4,1.2,0.8,1.9
			c0.4,0.7,1,1.5,1.8,2.3c0.6,0.5,1.1,0.8,1.5,0.8h1.9V638.9z M240.5,634.6l-0.8-2.1l-0.2-0.8l-0.1-0.8l-0.2-1.1l-0.1-1.3h-0.5
			l-0.6,0.1l-0.6,0.2l-1.2,0.5l-0.7,0.2c-0.4,0.1-0.6,0.3-0.9,0.5c-0.3,0.2-0.4,0.4-0.4,0.6c0,0.3,0.3,0.7,1,1.3
			c0.5,0.4,1.1,0.9,2.1,1.5l1.9,0.8l0.6,0.1C239.8,634.3,240.1,634.4,240.5,634.6z"/>
		<path class="st3" d="M248,632.8h15.7l-0.1-0.5c-0.6-1.4-1.2-2.7-1.9-3.9l-1-1.6c-0.3-0.5-0.6-0.9-0.9-1.2l1.1-1.8l2-3.4
			c0.5,0.6,1.2,1.6,2,3.1c0.8,1.4,1.4,2.9,1.8,4.4l0.1,0.8l0.1,1.2v0.6l-0.1,1.5c0,0.5-0.1,0.9-0.2,1.3l-0.4,2.7
			c-0.2,1.6-0.3,2.7-0.5,3H248V632.8z M264.2,648c-0.4,0.6-1,1.4-2,2.5c-0.6,0.7-1,1.2-1.3,1.4l-0.6-0.3l-1.8-1l-2.2-1.3l-1.2,1.3
			c-0.6,0.6-1,1-1.2,1.3c-0.6-0.2-1.5-0.6-2.7-1.3c-0.4-0.2-0.9-0.5-1.3-0.8l-0.7-0.6l2.3-2.9l1.1-1.1c0.2,0.3,0.9,0.9,2.1,1.6
			c0.9,0.6,1.6,0.9,2.1,1l0.2-0.2l0.7-0.6l1.9-2L264.2,648z"/>
		<path class="st3" d="M278.6,629.9c0,2.6-0.3,4.9-1,6.9c-0.5,1.3-1.1,2.6-2,3.8l-2.7-23.7c0-0.2,0.5-1.3,1.6-3.2l2.5-4.1l0.3,2.1
			l0.4,3.6C278.3,621.2,278.6,626.1,278.6,629.9z"/>
		<path class="st3" d="M298.7,639h-14.2l0.2-2.8l0.2-1.9c0-0.4,0-0.6,0.1-0.7l0.2-0.8h12.3v-0.4c0-1-0.4-2.1-1.2-3.4
			c-0.8-1.2-1.7-2.2-2.7-2.8l-1.5-0.9l-1.5-0.7l1-4.1c0.2-1.2,0.4-1.9,0.6-2.3c0.4,0.1,0.7,0.3,1.2,0.6l0.7,0.4l0.7,0.5
			c1.1,0.8,2.1,1.8,2.9,2.8c0.4,0.5,0.9,1.3,1.5,2.3l0.6,1.3l0.5,1.5l0.2,0.9l0.4,1.7v0.6v0.8c0,2.1-0.1,3.7-0.3,4.8
			C300.2,638.1,299.6,639,298.7,639z"/>
	</g>
	<path class="st4" d="M408.2,496c0,48.7,0,97.4,0,146.1c0,1,0,2.1,0,3.1c0,1.3,0.8,1.4,1.8,1.4c0.9,0,1.5-0.3,1.5-1.3
		c0-0.9,0-1.8,0-2.7c0-97.5,0-195.1,0-292.6c0-0.9,0-1.8,0-2.7c0-1.1-0.5-1.6-1.6-1.6c-1.1,0-1.8,0.3-1.7,1.5c0,1,0,2.1,0,3.1
		C408.2,398.8,408.2,447.4,408.2,496z"/>
	<path class="st2" d="M971.6,395.1c-2.9-0.6-5.8-1.3-8.8-1.9c-12.1-2.4-19.3,3-19.6,15.2c-0.3,15.8-0.3,31.7-0.1,47.5
		c0,3.7-1.1,4.5-4.4,4.2c-2.6-0.3-5.2-0.2-7.8-0.9c-5.7-1.7-8.8-5.2-9.2-11.3c-0.4-5.5-0.2-11-0.2-16.5c0.1-9.9-0.8-19.9,0.5-29.8
		c2.5-20.6,16.6-30.5,37-27.4c6.5,1,10.7,5.1,11.8,11.9c0.1,0.5,0.2,1,0.8,1.2C971.6,389.9,971.6,392.5,971.6,395.1z"/>
	<path class="st2" d="M631.9,577.9c62.8,0,125.7,0,188.5,0c5.1,0,5,0,3.6-5c-2.2-7.7-5-15.1-9-22.1c-12.9-22.4-33.2-19.8-47.7-10.9
		c-2,1.2-3.8,2.7-6.1,4.3c-0.3-5.7-0.5-11,0.8-16.2c1.6-6,5.5-10.1,11.5-11.8c10.2-3,20.7-3.7,31-1c12.9,3.3,22,11.6,28.6,22.9
		c6.2,10.6,9.9,22.1,11.9,34.2c0.9,5.6,0.8,5.6,6.6,5.6c3.9,0,7.9,0.1,11.8,0c8.1-0.2,12.3-4,13.3-12c0.2-1.7,0.2-3.4,0.2-5.1
		c0-26.2,0.1-52.4-0.1-78.6c0-3.3,0.5-5,4.2-4.4c1,0.2,2.1,0,3.1,0c10.9,0.3,15.7,5.2,15.7,16.1c0,23,0,46.1,0,69.1
		c0,21.2-12.4,34-33.7,34.7c-4.1,0.1-8.1,0-12.2,0c-78,0-156.1,0-234.1,0c-1.6,0-3.1-0.2-4.7-0.2C621.6,591.5,627,585,631.9,577.9z"
		/>
	<g>
		<path class="st5" d="M28.4,503c1-2.9,0.8-5.9,1.5-8.9c6.8-30.8,25.4-51.1,55.4-60.1c23.6-7.1,45.6-1.7,66,11.4
			c11.8,7.5,21.9,17,31.4,27.1c1,1,1,1.7,0.1,2.8c-5.5,6.5-10.9,12.9-16.2,19.5c-1.2,1.5-1.8,1.1-3,0c-5.3-4.9-10.6-9.8-16.1-14.6
			c-11.9-10.4-24.8-18.6-41-20.3c-3.3-1-6.7-0.3-10-0.4c-2.5,0.3-5,0.6-7.5,0.9c-18.2,2.9-33.3,11.2-45.4,25.1
			c-3.7,3.7-6.6,7.9-8.9,12.6c-1.8,2.2-3,4.6-3.7,7.4c-1.4,0.9-0.6,3.3-2.6,3.7C28.4,507.2,28.4,505.1,28.4,503z"/>
		<path class="st3" d="M63.7,532.2c6.7,10.4,15.9,17.5,27.8,20.9c11.9,3.4,23.3,1.9,34.3-3.5c11.9-5.8,21.8-14.4,31.4-23.4
			c18.6-17.6,34.1-37.9,48.6-58.9c9.9-14.4,19.6-28.9,29.4-43.3c0.2-0.4,0.4-0.7,0.8-1.4c-4-1.3-7.9-2.5-11.8-3.7
			c-15.6-4.9-31.2-9.9-46.9-14.7c-2.3-0.7-2.2-1.4-0.9-3c2-2.5,3.3-6.2,5.9-7.5c2.6-1.3,6.3-0.3,9.5-0.3c20,0.3,40,0.6,60,0.9
			c1.9,0,3.1-0.5,4.2-2.2c8.1-12.1,17.4-23.2,29.3-31.8c4.8-3.5,10-6.4,15.7-8.1c2-0.6,2.4,0,2.4,1.8c0.1,10.5-3,20.3-7.2,29.8
			c-4.2,9.5-9.7,18.3-16,26.6c-1.1,1.5-1.3,2.8-0.7,4.5c7.1,21.7,14.1,43.4,21.3,65.1c0.8,2.3,0.7,4.1-1,6c-1.5,1.7-2.8,3.6-4,5.5
			c-1,1.7-1.6,1.2-2.5-0.1c-6.9-10.4-13.9-20.7-20.9-31.1c-4.6-6.8-9.2-13.6-13.7-20.4c-1.3-1.9-1.8-1.8-3.1,0
			c-16.9,24.3-33.5,48.8-50.7,72.8c-11.3,15.8-23.3,31-37.9,44c-12.8,11.5-27,20.7-43.9,25c-39.1,9.8-77.5-13.3-90-48.5
			c6.2,0.9,12.5,0.7,18.7,0.4C55.9,533.6,60,533.9,63.7,532.2z"/>
		<path class="st5" d="M330.4,565.4c-9.3,8.5-20.2,13.9-32.4,16.6c-22.8,5.2-43.7,0.4-62.9-12.7c-11.5-7.8-21.5-17.2-30.9-27.4
			c-1.1-1.1-1-1.8-0.1-3c5.2-6.2,10.4-12.5,15.5-18.8c1.4-1.7,1.9-0.7,2.9,0.3c9.6,11,20.5,20.4,33.5,27.3c17.1,9,34.2,9.4,51.1-0.5
			c1.4-0.8,2.6-1.7,3.9-2.5c0.3,0.2,0.7,0.3,0.9,0.5c4.1,4.5,8,9.2,12.3,13.6C326.3,561,327.7,563.8,330.4,565.4z"/>
		<path class="st5" d="M313.2,472c-1.8-3.4-2.1-7.3-3.1-10.9c-2-7.9-3.9-15.8-5.9-23.7c-0.3-1.4-0.7-2.3,1.6-1.7
			c9.4,2.3,17.2,7.5,24.3,13.6c14.4,12.2,23.2,27.7,26,46.3c2.5,16.3,0.4,32.1-7.6,46.8c0-1.3,0-2.6-0.1-3.9
			c-0.2-2.7,0.6-5.5-0.5-8.2c-0.4-4.2-0.3-8.6-2-12.6c-0.1-0.5,0-1.1-0.2-1.6c-4.6-15.9-12.9-29.4-26-39.7c-1.5-1.2-2.7-3-5-3.1
			l0.1,0c-0.2-0.5-0.6-0.6-1.1-0.6l0,0C313.8,472.4,313.5,472.2,313.2,472z"/>
	</g>
	<g>
		<path class="st5" d="M732.4,409.3c0.5-1.5,0.4-3,0.8-4.5c3.4-15.7,12.9-26,28.1-30.6c12-3.6,23.2-0.9,33.5,5.8
			c6,3.8,11.1,8.7,16,13.8c0.5,0.5,0.5,0.9,0.1,1.4c-2.8,3.3-5.5,6.6-8.2,9.9c-0.6,0.8-0.9,0.6-1.5,0c-2.7-2.5-5.4-5-8.2-7.4
			c-6-5.3-12.6-9.5-20.8-10.3c-1.7-0.5-3.4-0.2-5.1-0.2c-1.3,0.2-2.5,0.3-3.8,0.5c-9.2,1.5-16.9,5.7-23.1,12.8
			c-1.9,1.9-3.3,4-4.5,6.4c-0.9,1.1-1.5,2.4-1.9,3.7c-0.7,0.4-0.3,1.7-1.3,1.9C732.4,411.4,732.4,410.4,732.4,409.3z"/>
		<path class="st3" d="M750.3,424.2c3.4,5.3,8.1,8.9,14.1,10.6c6,1.7,11.8,1,17.4-1.8c6.1-3,11.1-7.3,15.9-11.9
			c9.5-8.9,17.3-19.2,24.7-29.9c5-7.3,10-14.7,15-22c0.1-0.2,0.2-0.4,0.4-0.7c-2-0.6-4-1.3-6-1.9c-7.9-2.5-15.9-5-23.8-7.5
			c-1.2-0.4-1.1-0.7-0.5-1.5c1-1.3,1.7-3.1,3-3.8c1.3-0.7,3.2-0.2,4.8-0.1c10.2,0.1,20.3,0.3,30.5,0.5c1,0,1.6-0.2,2.1-1.1
			c4.1-6.2,8.8-11.8,14.9-16.2c2.5-1.8,5.1-3.2,8-4.1c1-0.3,1.2,0,1.2,0.9c0.1,5.4-1.5,10.3-3.7,15.1c-2.2,4.8-4.9,9.3-8.1,13.5
			c-0.6,0.8-0.7,1.4-0.4,2.3c3.6,11,7.2,22.1,10.8,33.1c0.4,1.2,0.3,2.1-0.5,3c-0.8,0.9-1.4,1.8-2,2.8c-0.5,0.9-0.8,0.6-1.3-0.1
			c-3.5-5.3-7.1-10.5-10.6-15.8c-2.3-3.5-4.7-6.9-7-10.4c-0.6-1-0.9-0.9-1.6,0c-8.6,12.3-17,24.8-25.8,37
			c-5.8,8-11.9,15.7-19.2,22.3c-6.5,5.8-13.7,10.5-22.3,12.7c-19.9,5-39.4-6.7-45.7-24.6c3.2,0.5,6.3,0.3,9.5,0.2
			C746.3,424.9,748.4,425,750.3,424.2z"/>
		<path class="st5" d="M885.8,441c-4.7,4.3-10.3,7.1-16.5,8.5c-11.6,2.6-22.2,0.2-32-6.5c-5.8-4-10.9-8.8-15.7-13.9
			c-0.5-0.6-0.5-0.9,0-1.5c2.7-3.2,5.3-6.3,7.9-9.5c0.7-0.9,1-0.4,1.5,0.2c4.9,5.6,10.4,10.4,17,13.8c8.7,4.6,17.4,4.8,26-0.2
			c0.7-0.4,1.3-0.9,2-1.3c0.2,0.1,0.3,0.1,0.4,0.3c2.1,2.3,4.1,4.7,6.2,6.9C883.7,438.8,884.5,440.2,885.8,441z"/>
		<path class="st5" d="M877.1,393.6c-0.9-1.7-1.1-3.7-1.6-5.5c-1-4-2-8-3-12.1c-0.2-0.7-0.4-1.2,0.8-0.9c4.8,1.2,8.7,3.8,12.4,6.9
			c7.3,6.2,11.8,14.1,13.2,23.5c1.3,8.3,0.2,16.3-3.9,23.8c0-0.7,0-1.3,0-2c-0.1-1.4,0.3-2.8-0.2-4.2c-0.2-2.2-0.1-4.3-1-6.4
			c0-0.3,0-0.5-0.1-0.8c-2.3-8.1-6.6-14.9-13.2-20.2c-0.8-0.6-1.4-1.5-2.5-1.6l0.1,0c-0.1-0.3-0.3-0.3-0.5-0.3l0,0
			C877.4,393.8,877.2,393.7,877.1,393.6z"/>
	</g>
	<path class="st2" d="M944.7,542.4c0,17.1-0.1,34.3,0.1,51.4c0,3.4-1,4.4-4.2,4c-1.3-0.2-2.6,0-3.9,0c-9.3-0.1-14.6-5.3-14.8-14.6
		c-0.1-8.5,0-17,0-25.5c0-25.2,0-50.5-0.1-75.7c0-3,0.6-4.4,3.8-3.9c1.5,0.2,3.1,0,4.7,0c9.7,0.1,14.4,4.8,14.4,14.5
		C944.7,509.2,944.7,525.8,944.7,542.4z"/>
	<g>
		<path class="st2" d="M701.9,407.7c0,16.2-0.1,32.5,0.1,48.7c0,2.9-0.7,4.2-3.7,3.7c-1-0.2-2.1,0-3.1,0c-10.5,0-15.8-5.4-15.9-16
			c0-9.7-0.1-19.4,0.1-29.1c0-2.9-0.5-4.1-3.8-4c-12.7,0.2-25.4,0.2-38.1,0c-3,0-4,0.6-4,3.8c0.2,13.9,0,27.7,0.2,41.6
			c0,3-0.8,4-3.7,3.7c-1.5-0.2-3.1,0-4.7-0.1c-8.6-0.3-14.2-5.4-14.3-14c-0.2-32.5-0.1-64.9-0.1-97.4c0-1.9,0.6-2.5,2.5-2.4
			c2.5,0.1,5,0,7.5,0c7.9,0,12.6,4.7,12.7,12.7c0.1,9.9,0.1,19.9,0,29.8c0,2.6,0.7,3.3,3.3,3.2c13.2-0.1,26.4-0.1,39.7,0
			c2.5,0,3-0.7,3-3.1c-0.1-13.1,0-26.2-0.1-39.3c0-2.7,0.7-3.4,3.4-3.5c16-1,19.9,5,19.3,19.1C701.5,379.4,701.9,393.6,701.9,407.7z
			"/>
		<path class="st2" d="M508.5,346.3c9.7,0,19.4,0.1,29.1-0.1c2.5,0,3.3,0.5,3.3,3.2c0.1,12.6-3.6,16.5-16.2,16.5
			c-11.7,0-23.3,0.1-35-0.1c-2.8,0-3.6,1-3.8,3.5c-0.5,6.5-1,13-1.1,19.6c-0.1,2.7,0.6,3.6,3.4,3.5c12.2-0.2,24.4,0,36.5-0.1
			c2.8,0,3.8,0.6,3.8,3.6c-0.1,12.4-2.4,14.9-14.9,14.9c-8.6,0-17.3,0.1-25.9,0c-2.2,0-3.1,0.5-2.9,2.8c0.2,4.4-0.1,8.9,0.7,13.3
			c1.8,9,5.6,12.6,14.7,13.7c12.3,1.4,24.6,1,36.7-1.3c3.4-0.6,4.6,0,4,3.4c-0.2,1,0,2.1,0,3.1c0,7.8-3.2,12.3-10.8,13.5
			c-13.2,2.2-26.7,2.6-39.8-0.2c-16.4-3.5-26.7-16-27.9-33.6c-1.5-21.1-1.3-42.1,1.6-63.1c1.6-11.7,6.8-16.1,18.6-16.2
			C491.3,346.3,499.9,346.3,508.5,346.3z"/>
		<path class="st2" d="M558.3,392.6c0-14.3,0.1-28.6-0.1-42.8c0-3.4,1-4.4,4.2-4c1.4,0.2,2.9,0,4.3,0.2c8.5,1.1,12.8,5.9,12.8,14.5
			c0,23.2,0,46.4,0,69.5c0,1.6,0,3.2,0.2,4.7c0.6,4.2,2.8,6.9,7.1,7.9c2.7,0.7,5.5,0.9,8.2,0.6c4-0.4,5.2,0.8,4.9,4.9
			c-0.6,7.7-4,11.6-11.9,12.4c-4.6,0.5-9.2,0.1-13.6-1.3c-10.2-3.1-15.9-11.4-16-23.9C558.2,421.1,558.3,406.8,558.3,392.6
			L558.3,392.6z"/>
	</g>
	<path class="st2" d="M490.2,571.7c0-12.8,0.1-25.6-0.1-38.5c0-2.8,0.8-3.9,3.5-3.4c0.1,0,0.3,0,0.4,0c12.1-0.1,15.4,3.2,15.4,15.3
		c0,23.8,0.1,47.6,0,71.4c0,19.1-18.8,33.3-37.4,28.4c-6.5-1.7-9.2-5.6-8.9-12.4c0.1-2,0.7-2.5,2.6-2.1c3.3,0.6,6.5,0.1,9.8-0.3
		c8.5-1.1,13-5.6,14.3-14.1c1.1-7.4,0.5-14.9,0.5-22.3c0-7.3,0-14.7,0-22C490.3,571.7,490.3,571.7,490.2,571.7z"/>
	<path class="st6" d="M408.2,496c0-48.6,0-97.1,0-145.7c0-1,0-2.1,0-3.1c0-1.2,0.7-1.5,1.7-1.5c1.2,0,1.7,0.5,1.6,1.6
		c0,0.9,0,1.8,0,2.7c0,97.5,0,195.1,0,292.6c0,0.9,0,1.8,0,2.7c0,1-0.6,1.3-1.5,1.3c-1,0-1.8-0.1-1.8-1.4c0-1,0-2.1,0-3.1
		C408.2,593.4,408.2,544.7,408.2,496z"/>
	<g>
		<path class="st5" d="M594.9,529.3c-1.5,0.4-3.1,0.1-4.6,0.3c-16.1,1.9-27.3,10.3-33.5,25.1c-4.8,11.6-3.2,23.1,2.4,34.2
			c3.2,6.4,7.6,12,12.2,17.4c0.5,0.6,0.8,0.6,1.4,0.2c3.6-2.5,7.2-4.9,10.8-7.3c0.8-0.5,0.7-0.9,0.2-1.5c-2.2-3-4.5-5.9-6.6-8.9
			c-4.7-6.6-8.2-13.6-8.2-21.9c-0.4-1.7,0.2-3.4,0.3-5.1c0.3-1.3,0.5-2.5,0.9-3.8c2.4-9.1,7.4-16.4,15.1-21.9
			c2.1-1.7,4.4-2.9,6.9-3.9c1.2-0.8,2.5-1.3,3.9-1.5c0.5-0.7,1.7-0.1,2-1.1C597.1,529.5,596,529.4,594.9,529.3z"/>
		<path class="st3" d="M608,548.8c4.9,4,8.1,9,9.2,15.3c1.1,6.2-0.2,12-3.5,17.3c-3.6,5.8-8.4,10.4-13.5,14.8
			c-9.9,8.6-21.1,15.4-32.5,21.7c-7.8,4.3-15.7,8.5-23.6,12.8c-0.2,0.1-0.4,0.2-0.7,0.3c-0.4-2.1-0.9-4.2-1.3-6.2
			c-1.7-8.2-3.4-16.4-5.1-24.7c-0.2-1.2-0.6-1.2-1.5-0.6c-1.4,0.9-3.3,1.4-4.1,2.6c-0.8,1.2-0.5,3.2-0.6,4.8
			c-0.9,10.2-1.8,20.4-2.6,30.6c-0.1,1-0.4,1.6-1.3,2c-6.6,3.5-12.7,7.7-17.7,13.3c-2,2.3-3.8,4.8-5,7.6c-0.4,1-0.1,1.2,0.8,1.3
			c5.4,0.6,10.5-0.5,15.5-2.1c5.1-1.7,9.8-4,14.4-6.8c0.8-0.5,1.5-0.5,2.3-0.1c10.7,4.7,21.4,9.4,32.1,14.2c1.1,0.5,2,0.6,3.1-0.2
			c0.9-0.7,2-1.2,3-1.7c0.9-0.4,0.7-0.7,0.1-1.3c-4.9-4.1-9.9-8.2-14.8-12.2c-3.2-2.7-6.4-5.4-9.7-8c-0.9-0.7-0.8-1,0.2-1.6
			c13.3-7.4,26.6-14.6,39.7-22.1c8.6-5,17-10.3,24.4-17c6.5-5.9,11.9-12.7,15-21.1c7-19.4-2.8-40.2-20.1-48.3
			c0.2,3.2-0.3,6.4-0.7,9.6C609.1,544.8,609.1,546.9,608,548.8z"/>
	</g>
</g>
</svg>
