<svg width="293" height="138" viewBox="0 0 293 138" fill="none" xmlns="http://www.w3.org/2000/svg">
<path d="M0 80.97L51.61 64.63L41.76 137.71L58.79 128.57L86.79 53.49L136.96 37.61C138.38 37.16 138.63 34.36 137.34 33.39L122.03 21.9C117.26 18.32 111.74 17.47 106.56 19.52L2.45999 60.73L0 80.97Z" fill="#455BA8"/>
<path d="M71.7 27.21L47.28 36.87L24.18 1.26001L40.39 0L71.7 27.21Z" fill="#D92434"/>
<path d="M177.35 31.88V35.88H168.79V62.55H163.79V35.88H155.28V31.88H177.35Z" fill="#455BA8"/>
<path d="M189.47 39.59C190.97 38.68 192.71 38.22 194.68 38.22V43.61H193.2C191.03 43.61 189.28 44.14 187.97 45.2C186.65 46.26 185.99 48 185.99 50.43V62.55H181.04V38.62H185.99V43.31C186.81 41.74 187.97 40.5 189.47 39.59Z" fill="#455BA8"/>
<path d="M198.55 29.58C199.13 29.03 199.9 28.75 200.85 28.75C201.81 28.75 202.58 29.03 203.17 29.58C203.76 30.13 204.06 30.83 204.06 31.66C204.06 32.5 203.76 33.18 203.17 33.7C202.58 34.22 201.8 34.48 200.85 34.48C199.89 34.48 199.13 34.22 198.55 33.7C197.97 33.18 197.68 32.5 197.68 31.66C197.68 30.82 197.97 30.13 198.55 29.58Z" fill="#D92434"/>
<path d="M203.33 38.61H198.38V62.54H203.33V38.61Z" fill="#455BA8"/>
<path d="M228.63 39.78C230.27 40.76 231.55 42.18 232.47 44.04C233.4 45.89 233.86 48.07 233.86 50.56C233.86 53.08 233.4 55.27 232.47 57.12C231.54 58.97 230.26 60.39 228.63 61.38C226.99 62.36 225.13 62.86 223.05 62.86C220.88 62.86 219.02 62.32 217.49 61.25C215.95 60.18 214.88 58.76 214.28 56.99V73.93H209.33V38.62H214.28V44.18C214.89 42.41 215.96 40.99 217.49 39.92C219.02 38.85 220.88 38.31 223.05 38.31C225.13 38.31 226.99 38.8 228.63 39.78ZM217.79 43.63C216.69 44.28 215.82 45.21 215.18 46.41C214.54 47.61 214.22 48.99 214.22 50.56C214.22 52.15 214.54 53.54 215.18 54.73C215.82 55.92 216.68 56.84 217.79 57.49C218.89 58.14 220.14 58.47 221.53 58.47C223.73 58.47 225.5 57.77 226.83 56.36C228.16 54.96 228.83 53.02 228.83 50.56C228.83 48.13 228.16 46.2 226.83 44.78C225.5 43.36 223.73 42.65 221.53 42.65C220.14 42.65 218.89 42.98 217.79 43.63Z" fill="#455BA8"/>
<path d="M182 76.76V107.43H177V93.66H162.59V107.43H157.64V76.76H162.59V89.62H177.01V76.76H182Z" fill="#455BA8"/>
<path d="M203.15 84.8C204.69 85.87 205.77 87.29 206.41 89.06V83.5H211.36V107.43H206.41V101.87C205.77 103.64 204.69 105.06 203.15 106.13C201.61 107.2 199.76 107.74 197.59 107.74C195.51 107.74 193.64 107.25 192.01 106.26C190.38 105.27 189.09 103.86 188.17 102C187.24 100.15 186.78 97.96 186.78 95.44C186.78 92.95 187.24 90.78 188.17 88.92C189.1 87.07 190.38 85.65 192.01 84.66C193.65 83.68 195.51 83.18 197.59 83.18C199.77 83.19 201.62 83.73 203.15 84.8ZM193.84 89.64C192.52 91.04 191.86 92.98 191.86 95.44C191.86 97.9 192.52 99.83 193.84 101.24C195.16 102.65 196.92 103.35 199.12 103.35C200.51 103.35 201.75 103.02 202.86 102.37C203.96 101.72 204.83 100.8 205.47 99.61C206.11 98.42 206.43 97.03 206.43 95.44C206.43 93.88 206.11 92.49 205.47 91.29C204.83 90.09 203.96 89.16 202.86 88.51C201.76 87.86 200.51 87.53 199.12 87.53C196.91 87.53 195.15 88.24 193.84 89.64Z" fill="#455BA8"/>
<path d="M237.38 85.7999C239.06 87.5999 239.9 90.16 239.9 93.49V107.43H234.95V94.0099C234.95 91.8699 234.4 90.2099 233.3 89.0399C232.2 87.8699 230.69 87.28 228.78 87.28C226.81 87.28 225.23 87.9099 224.05 89.1699C222.87 90.4299 222.27 92.28 222.27 94.71V107.44H217.32V83.5099H222.27V88.7699C222.91 86.9799 223.98 85.58 225.48 84.6C226.99 83.62 228.72 83.12 230.69 83.12C233.47 83.1 235.7 83.9999 237.38 85.7999Z" fill="#455BA8"/>
<path d="M260.84 84.8C262.38 85.87 263.45 87.29 264.05 89.06V75.29H269.05V107.43H264.05V101.87C263.44 103.64 262.37 105.06 260.84 106.13C259.31 107.2 257.45 107.74 255.28 107.74C253.2 107.74 251.33 107.25 249.7 106.26C248.07 105.27 246.78 103.86 245.86 102C244.93 100.15 244.47 97.96 244.47 95.44C244.47 92.95 244.93 90.78 245.86 88.92C246.79 87.07 248.07 85.65 249.7 84.66C251.34 83.68 253.2 83.18 255.28 83.18C257.45 83.19 259.3 83.73 260.84 84.8ZM251.52 89.64C250.2 91.04 249.54 92.98 249.54 95.44C249.54 97.9 250.2 99.83 251.52 101.24C252.84 102.65 254.6 103.35 256.8 103.35C258.19 103.35 259.43 103.02 260.54 102.37C261.64 101.72 262.51 100.8 263.15 99.61C263.79 98.42 264.11 97.03 264.11 95.44C264.11 93.88 263.79 92.49 263.15 91.29C262.51 90.09 261.64 89.16 260.54 88.51C259.44 87.86 258.19 87.53 256.8 87.53C254.6 87.53 252.84 88.24 251.52 89.64Z" fill="#455BA8"/>
<path d="M289.61 85.34C291.3 86.77 292.34 88.69 292.72 91.1H288.03C287.83 89.8 287.27 88.75 286.36 87.95C285.45 87.15 284.24 86.76 282.73 86.76C281.48 86.76 280.52 87.06 279.84 87.65C279.16 88.24 278.82 89.05 278.82 90.06C278.82 90.81 279.07 91.42 279.56 91.88C280.05 92.34 280.67 92.71 281.41 92.97C282.15 93.23 283.2 93.52 284.56 93.84C286.36 94.25 287.81 94.67 288.93 95.1C290.04 95.53 291 96.22 291.8 97.16C292.6 98.1 292.99 99.38 292.99 101C292.99 103 292.23 104.62 290.71 105.87C289.19 107.12 287.14 107.74 284.56 107.74C281.58 107.74 279.17 107.05 277.33 105.66C275.49 104.27 274.38 102.33 274.01 99.84H278.83C278.97 101.14 279.55 102.2 280.57 103.01C281.58 103.82 282.92 104.23 284.57 104.23C285.76 104.23 286.69 103.92 287.37 103.3C288.05 102.68 288.39 101.89 288.39 100.93C288.39 100.09 288.13 99.43 287.61 98.93C287.09 98.44 286.44 98.05 285.65 97.78C284.87 97.51 283.8 97.22 282.44 96.93C280.7 96.52 279.29 96.12 278.2 95.71C277.11 95.31 276.19 94.65 275.42 93.73C274.65 92.82 274.27 91.58 274.27 90.02C274.27 87.99 275.03 86.35 276.55 85.09C278.07 83.83 280.18 83.2 282.87 83.2C285.67 83.19 287.92 83.91 289.61 85.34Z" fill="#455BA8"/>
</svg>
